<svg width="26" height="32" viewBox="0 0 26 32" fill="none" xmlns="http://www.w3.org/2000/svg">
<path d="M10.6176 14.1289L13.87 18.2231C13.87 18.2231 13.2475 22.0616 10.9986 23.8526C8.74974 25.6444 1 25.1321 1 25.1321C1 25.1321 1.1425 24.2644 1.4125 23.0535L4.96075 18.8471C5.10962 18.6709 4.92812 18.4114 4.71137 18.4909L2.44637 19.3192C2.98787 17.757 3.67337 16.3177 4.49387 15.6641C6.74274 13.8731 10.6176 14.1289 10.6176 14.1289ZM24.8698 7.16362L24.1251 6.22613C23.9192 5.96738 23.5431 5.92425 23.2847 6.13013L14.5667 12.7976L13.2865 11.1862C13.0956 10.9459 12.7187 10.9909 12.5894 11.2691L11.6395 13.3147L14.8919 17.409L17.0969 16.9421C17.3969 16.8787 17.5251 16.5221 17.3346 16.2821L16.0562 14.6726L24.7742 8.00512C25.0326 7.79962 25.0757 7.42275 24.8698 7.16362Z" fill="white"/>
</svg>
