<svg width="26" height="32" viewBox="0 0 26 32" fill="none" xmlns="http://www.w3.org/2000/svg">
<path d="M21.6719 8.92188L17.0828 4.32812C16.8719 4.11719 16.5859 4 16.2859 4H16V10H22V9.71406C22 9.41875 21.8828 9.13281 21.6719 8.92188ZM14.5 10.375V4H5.125C4.50156 4 4 4.50156 4 5.125V26.875C4 27.4984 4.50156 28 5.125 28H20.875C21.4984 28 22 27.4984 22 26.875V11.5H15.625C15.0063 11.5 14.5 10.9938 14.5 10.375ZM7 7.375C7 7.16781 7.16781 7 7.375 7H11.125C11.3322 7 11.5 7.16781 11.5 7.375V8.125C11.5 8.33219 11.3322 8.5 11.125 8.5H7.375C7.16781 8.5 7 8.33219 7 8.125V7.375ZM7 11.125V10.375C7 10.1678 7.16781 10 7.375 10H11.125C11.3322 10 11.5 10.1678 11.5 10.375V11.125C11.5 11.3322 11.3322 11.5 11.125 11.5H7.375C7.16781 11.5 7 11.3322 7 11.125ZM13.75 23.4944V24.625C13.75 24.8322 13.5822 25 13.375 25H12.625C12.4178 25 12.25 24.8322 12.25 24.625V23.4864C11.7208 23.4592 11.2061 23.2745 10.7795 22.9544C10.5967 22.817 10.5873 22.5433 10.7528 22.3853L11.3036 21.8598C11.4334 21.7361 11.6266 21.7305 11.7784 21.8256C11.9598 21.9391 12.1656 22 12.3794 22H13.697C14.0017 22 14.2502 21.7225 14.2502 21.3817C14.2502 21.1028 14.0809 20.8572 13.8391 20.785L11.7297 20.1522C10.8583 19.8906 10.2494 19.0544 10.2494 18.1183C10.2494 16.9689 11.1423 16.0352 12.2495 16.0056V14.875C12.2495 14.6678 12.4173 14.5 12.6245 14.5H13.3745C13.5817 14.5 13.7495 14.6678 13.7495 14.875V16.0136C14.2788 16.0408 14.7934 16.225 15.22 16.5456C15.4028 16.683 15.4122 16.9567 15.2467 17.1147L14.6959 17.6402C14.5661 17.7639 14.373 17.7695 14.2211 17.6744C14.0397 17.5605 13.8339 17.5 13.6202 17.5H12.3025C11.9978 17.5 11.7494 17.7775 11.7494 18.1183C11.7494 18.3972 11.9186 18.6428 12.1605 18.715L14.2698 19.3478C15.1412 19.6094 15.7502 20.4456 15.7502 21.3817C15.7502 22.5316 14.8572 23.4648 13.75 23.4944Z" fill="white"/>
</svg>
