<svg width="26" height="32" viewBox="0 0 26 32" fill="none" xmlns="http://www.w3.org/2000/svg">
<path d="M19.75 7H16C16 5.34531 14.6547 4 13 4C11.3453 4 10 5.34531 10 7H6.25C5.00781 7 4 8.00781 4 9.25V25.75C4 26.9922 5.00781 28 6.25 28H19.75C20.9922 28 22 26.9922 22 25.75V9.25C22 8.00781 20.9922 7 19.75 7ZM8.5 23.875C7.87656 23.875 7.375 23.3734 7.375 22.75C7.375 22.1266 7.87656 21.625 8.5 21.625C9.12344 21.625 9.625 22.1266 9.625 22.75C9.625 23.3734 9.12344 23.875 8.5 23.875ZM8.5 19.375C7.87656 19.375 7.375 18.8734 7.375 18.25C7.375 17.6266 7.87656 17.125 8.5 17.125C9.12344 17.125 9.625 17.6266 9.625 18.25C9.625 18.8734 9.12344 19.375 8.5 19.375ZM8.5 14.875C7.87656 14.875 7.375 14.3734 7.375 13.75C7.375 13.1266 7.87656 12.625 8.5 12.625C9.12344 12.625 9.625 13.1266 9.625 13.75C9.625 14.3734 9.12344 14.875 8.5 14.875ZM13 5.875C13.6234 5.875 14.125 6.37656 14.125 7C14.125 7.62344 13.6234 8.125 13 8.125C12.3766 8.125 11.875 7.62344 11.875 7C11.875 6.37656 12.3766 5.875 13 5.875ZM19 23.125C19 23.3312 18.8313 23.5 18.625 23.5H11.875C11.6687 23.5 11.5 23.3312 11.5 23.125V22.375C11.5 22.1688 11.6687 22 11.875 22H18.625C18.8313 22 19 22.1688 19 22.375V23.125ZM19 18.625C19 18.8313 18.8313 19 18.625 19H11.875C11.6687 19 11.5 18.8313 11.5 18.625V17.875C11.5 17.6687 11.6687 17.5 11.875 17.5H18.625C18.8313 17.5 19 17.6687 19 17.875V18.625ZM19 14.125C19 14.3313 18.8313 14.5 18.625 14.5H11.875C11.6687 14.5 11.5 14.3313 11.5 14.125V13.375C11.5 13.1687 11.6687 13 11.875 13H18.625C18.8313 13 19 13.1687 19 13.375V14.125Z" fill="white"/>
</svg>
