<svg width="26" height="31" viewBox="0 0 26 31" fill="none" xmlns="http://www.w3.org/2000/svg">
<path d="M12.6818 11.0416L5.00032 17.3682V24.1964C5.00032 24.3732 5.07055 24.5428 5.19556 24.6678C5.32058 24.7928 5.49013 24.863 5.66693 24.863L10.3357 24.851C10.512 24.8501 10.6807 24.7794 10.805 24.6545C10.9292 24.5296 10.999 24.3606 10.999 24.1843V20.1967C10.999 20.0199 11.0693 19.8504 11.1943 19.7254C11.3193 19.6003 11.4888 19.5301 11.6656 19.5301H14.3321C14.5089 19.5301 14.6785 19.6003 14.8035 19.7254C14.9285 19.8504 14.9987 20.0199 14.9987 20.1967V24.1814C14.9984 24.2691 15.0155 24.356 15.0489 24.4372C15.0822 24.5183 15.1313 24.592 15.1932 24.6541C15.2552 24.7163 15.3287 24.7655 15.4097 24.7992C15.4908 24.8328 15.5776 24.8501 15.6653 24.8501L20.3325 24.863C20.5093 24.863 20.6788 24.7928 20.8038 24.6678C20.9289 24.5428 20.9991 24.3732 20.9991 24.1964V17.3636L13.3193 11.0416C13.229 10.9688 13.1165 10.9291 13.0005 10.9291C12.8846 10.9291 12.7721 10.9688 12.6818 11.0416ZM24.8155 15.3417L21.3324 12.4707V6.69985C21.3324 6.56725 21.2797 6.44009 21.186 6.34633C21.0922 6.25256 20.965 6.19989 20.8324 6.19989H18.4993C18.3667 6.19989 18.2395 6.25256 18.1458 6.34633C18.052 6.44009 17.9993 6.56725 17.9993 6.69985V9.72503L14.2692 6.6561C13.9112 6.36154 13.462 6.20048 12.9985 6.20048C12.5349 6.20048 12.0857 6.36154 11.7277 6.6561L1.18144 15.3417C1.13082 15.3835 1.08893 15.4349 1.05818 15.493C1.02743 15.551 1.00842 15.6145 1.00223 15.6799C0.996035 15.7453 1.00279 15.8113 1.0221 15.8741C1.04142 15.9368 1.07291 15.9952 1.11478 16.0458L2.1772 17.3374C2.21896 17.3881 2.27033 17.4302 2.32835 17.4611C2.38638 17.492 2.44994 17.5111 2.51538 17.5175C2.58082 17.5238 2.64686 17.5171 2.70973 17.4978C2.77259 17.4786 2.83104 17.4471 2.88173 17.4053L12.6818 9.3334C12.7721 9.26062 12.8846 9.22094 13.0005 9.22094C13.1165 9.22094 13.229 9.26062 13.3193 9.3334L23.1198 17.4053C23.1704 17.4472 23.2287 17.4786 23.2915 17.498C23.3543 17.5173 23.4202 17.524 23.4856 17.5178C23.551 17.5116 23.6145 17.4926 23.6726 17.4619C23.7306 17.4311 23.782 17.3892 23.8239 17.3386L24.8863 16.047C24.9281 15.9962 24.9595 15.9375 24.9786 15.8744C24.9976 15.8114 25.0041 15.7452 24.9975 15.6796C24.9909 15.6141 24.9714 15.5505 24.9402 15.4925C24.909 15.4345 24.8666 15.3832 24.8155 15.3417Z" fill="white"/>
</svg>
