<svg width="26" height="32" viewBox="0 0 26 32" fill="none" xmlns="http://www.w3.org/2000/svg">
<path d="M24.6935 19.0125L22.5402 17.7691C22.7576 16.5964 22.7576 15.3934 22.5402 14.2208L24.6935 12.9774C24.9411 12.8358 25.0523 12.5427 24.9715 12.2697C24.4104 10.4703 23.4551 8.84277 22.2066 7.48815C22.0145 7.28091 21.7012 7.23037 21.4585 7.3719L19.3053 8.61531C18.4006 7.83691 17.3593 7.23542 16.2322 6.84117V4.35939C16.2322 4.07634 16.035 3.82867 15.757 3.76801C13.902 3.35354 12.0015 3.37376 10.2375 3.76801C9.95948 3.82867 9.76235 4.07634 9.76235 4.35939V6.84622C8.64024 7.24553 7.59901 7.84702 6.68919 8.62037L4.54101 7.37695C4.29334 7.23542 3.98501 7.28091 3.79294 7.4932C2.54447 8.84277 1.58916 10.4703 1.02811 12.2748C0.942182 12.5477 1.05844 12.8409 1.30611 12.9824L3.45934 14.2258C3.242 15.3985 3.242 16.6015 3.45934 17.7741L1.30611 19.0175C1.05844 19.1591 0.947237 19.4522 1.02811 19.7252C1.58916 21.5246 2.54447 23.1522 3.79294 24.5068C3.98501 24.714 4.29839 24.7646 4.54101 24.623L6.69425 23.3796C7.59901 24.158 8.64024 24.7595 9.76741 25.1538V27.6406C9.76741 27.9236 9.96453 28.1713 10.2425 28.232C12.0975 28.6464 13.9981 28.6262 15.7621 28.232C16.0401 28.1713 16.2372 27.9236 16.2372 27.6406V25.1538C17.3593 24.7544 18.4006 24.153 19.3104 23.3796L21.4636 24.623C21.7113 24.7646 22.0196 24.7191 22.2117 24.5068C23.4601 23.1572 24.4155 21.5297 24.9765 19.7252C25.0523 19.4472 24.9411 19.154 24.6935 19.0125ZM12.9973 20.0386C10.7682 20.0386 8.95362 18.224 8.95362 15.9949C8.95362 13.7659 10.7682 11.9513 12.9973 11.9513C15.2263 11.9513 17.0409 13.7659 17.0409 15.9949C17.0409 18.224 15.2263 20.0386 12.9973 20.0386Z" fill="white"/>
</svg>
