<svg xmlns="http://www.w3.org/2000/svg" width="28" height="32" viewBox="0 0 28 32"><g clip-path="url(#a)"><path fill="currentColor" d="M24 21H12c-.55 0-1-.45-1-1V4c0-.55.45-1 1-1h8.756L25 7.244V20c0 .55-.45 1-1 1Zm-12 3h12c2.206 0 4-1.794 4-4V7.244a3 3 0 0 0-.881-2.119L22.88.881A3 3 0 0 0 20.762 0H12C9.794 0 8 1.794 8 4v16c0 2.206 1.794 4 4 4ZM4 8c-2.206 0-4 1.794-4 4v16c0 2.206 1.794 4 4 4h12c2.206 0 4-1.794 4-4v-2h-3v2c0 .55-.45 1-1 1H4c-.55 0-1-.45-1-1V12c0-.55.45-1 1-1h2V8H4Z"/></g><defs><clipPath id="a"><path fill="#fff" d="M0 0h28v32H0z"/></clipPath></defs></svg>