<svg xmlns="http://www.w3.org/2000/svg" width="70" height="70" viewBox="0 0 70 70" fill="none"><path fill="currentColor" d="M7 36.75h10.5c.345 0 .682.103.97.294l10.5 7a1.75 1.75 0 0 1-.977 3.206h-10.5a1.75 1.75 0 0 1-.97-.294l-10.5-7A1.75 1.75 0 0 1 7 36.75Zm9.971 3.5h-4.2l5.25 3.5h4.2l-5.25-3.5ZM49 26.25c.345 0 .682.102.97.294l10.5 7a1.75 1.75 0 0 1-.148 3l-6.562 3.5a1.75 1.75 0 0 1-1.75-.07l-10.938-7a1.748 1.748 0 0 1-.52-2.436 1.75 1.75 0 0 1 .681-.606l7-3.5c.239-.118.5-.18.767-.182Zm7.094 8.582-7.22-4.813-3.336 1.67 7.48 4.788 3.076-1.645Z"/><path fill="currentColor" d="M52.5 36.501c.288 0 .572.071.826.207l7 3.748a1.75 1.75 0 0 1-.346 3.224l-24.5 7a1.75 1.75 0 0 1-1.264-.119l-7-3.5a1.751 1.751 0 0 1-.57-2.672c.222-.271.52-.47.857-.57l24.5-7.248c.161-.047.329-.07.497-.07Zm2.366 5.005-2.559-1.372-19.554 5.786 2.422 1.21 19.691-5.624ZM38.5 22.75a1.75 1.75 0 0 1 1.565.966l3.5 7a1.75 1.75 0 0 1-1.085 2.464l-24.5 7a1.75 1.75 0 0 1-2.048-.9l-3.5-7a1.752 1.752 0 0 1 1.085-2.463l24.5-7a1.75 1.75 0 0 1 .483-.067Zm.99 7.647-1.907-3.814-21.077 6.02 1.907 3.814 21.078-6.02Z"/><path fill="currentColor" d="M43.75 42h-3.5v-8.18l-22.27 6.364-.963-3.368 26.73-7.637L43.75 42Z"/><path fill="currentColor" d="M28 45.055a.875.875 0 0 1-.875-.875.956.956 0 0 1 .08-.35c.088-.2.323-.752.63-1.568a.876.876 0 0 1 1.614-.049.874.874 0 0 1 .021.669 36.497 36.497 0 0 1-.661 1.641.876.876 0 0 1-.809.532Zm1.782-4.935a.875.875 0 0 1-.554-.199.875.875 0 0 1-.283-.931c.168-.557.326-1.11.466-1.652a.875.875 0 1 1 1.694.44c-.147.564-.308 1.142-.483 1.716a.876.876 0 0 1-.84.626Zm1.21-5.106a.879.879 0 0 1-.143 0 .875.875 0 0 1-.721-1.005c.095-.574.171-1.14.227-1.683a.88.88 0 0 1 .96-.78.875.875 0 0 1 .78.958c-.06.574-.14 1.176-.241 1.785a.874.874 0 0 1-.865.71l.003.015Zm.323-5.23a.875.875 0 0 1-.872-.818 13.295 13.295 0 0 0-.203-1.628.875.875 0 0 1 1.043-1.023.875.875 0 0 1 .683.698c.115.61.192 1.225.23 1.844a.874.874 0 0 1-.815.931l-.066-.003Zm-1.453-4.987a.874.874 0 0 1-.738-.402 6.048 6.048 0 0 0-.977-1.17.875.875 0 0 1-.049-1.235.874.874 0 0 1 1.236-.045c.482.447.905.954 1.26 1.508a.875.875 0 0 1-.732 1.344ZM13.57 22.414a.875.875 0 0 1-.652-1.455.875.875 0 0 1 .603-.292 25.015 25.015 0 0 0 1.676-.16.876.876 0 1 1 .231 1.735c-.62.08-1.228.14-1.806.175l-.052-.003Zm-3.5-.15a.879.879 0 0 1-.147 0 10.065 10.065 0 0 1-1.852-.49.876.876 0 0 1 .616-1.639 8.332 8.332 0 0 0 1.53.403.875.875 0 0 1 .7 1.011.875.875 0 0 1-.833.718l-.014-.004Zm15.62-.477a.868.868 0 0 1-.245-.035 10.008 10.008 0 0 0-1.575-.315.874.874 0 0 1-.432-1.56.878.878 0 0 1 .646-.18c.626.076 1.245.2 1.851.375a.875.875 0 0 1-.23 1.715h-.015Zm-6.944-.147a.875.875 0 0 1-.136-1.74 25.196 25.196 0 0 1 1.795-.227.875.875 0 0 1 .154 1.743c-.535.05-1.099.12-1.673.214a.875.875 0 0 1-.126.014l-.014-.004Zm-13.08-1.932a.876.876 0 0 1-.748-.42 5.285 5.285 0 0 1-.7-1.96.875.875 0 0 1 1.729-.266c.067.464.227.91.469 1.313a.875.875 0 0 1-.294 1.2.872.872 0 0 1-.441.137l-.014-.004Zm42.809-1.193h-.65a.875.875 0 0 1-.83-.917.878.878 0 0 1 .917-.83c.537.03 1.075.017 1.61-.038a.88.88 0 0 1 .962.777.874.874 0 0 1-.777.962c-.405.038-.811.054-1.218.05l-.014-.004Zm-4.056-.578a.876.876 0 0 1-.217-.028c-.55-.14-1.131-.308-1.733-.5a.875.875 0 0 1 .532-1.666c.567.182 1.117.35 1.631.472a.875.875 0 0 1 .63 1.05.875.875 0 0 1-.812.68l-.032-.008Zm8.515-.514a.875.875 0 0 1-.416-1.642 8.844 8.844 0 0 0 1.316-.892.876.876 0 1 1 1.106 1.358c-.493.402-1.022.76-1.579 1.067a.871.871 0 0 1-.413.116l-.014-.007Zm-13.482-1.18a.869.869 0 0 1-.329-.063c-.514-.21-1.05-.44-1.631-.7a.873.873 0 0 1-.26-1.432.874.874 0 0 1 .957-.174 65.51 65.51 0 0 0 1.596.668.876.876 0 0 1 .483 1.141.875.875 0 0 1-.802.567l-.014-.007ZM5.593 14.651a.875.875 0 0 1-.816-1.214c.25-.587.552-1.15.904-1.68a.875.875 0 0 1 1.459.962 8.674 8.674 0 0 0-.752 1.4.875.875 0 0 1-.788.539l-.007-.007Zm29.05-.525a.871.871 0 0 1-.367-.08l-1.59-.75a.875.875 0 0 1 .753-1.578l1.575.742a.875.875 0 0 1 .424 1.162.875.875 0 0 1-.788.51l-.007-.006Zm-4.732-2.268a.871.871 0 0 1-.381-.088L27.955 11a.875.875 0 0 1 .766-1.571l1.572.766a.875.875 0 0 1 .402 1.17.875.875 0 0 1-.766.5l-.018-.007Zm-21.15-1.334a.871.871 0 0 1-.676-.318.875.875 0 0 1 .116-1.232c.48-.398.986-.762 1.515-1.092a.875.875 0 0 1 .924 1.484c-.462.287-.904.605-1.323.952a.872.872 0 0 1-.539.217l-.017-.01Zm16.45-.976a.871.871 0 0 1-.385-.091l-.7-.35a21.982 21.982 0 0 0-.833-.382.875.875 0 0 1 .69-1.606c.304.13.608.27.91.416l.7.35a.875.875 0 0 1 .402 1.17.876.876 0 0 1-.795.503l.01-.01ZM13.374 8.057a.875.875 0 0 1-.256-1.712 14.5 14.5 0 0 1 1.813-.427.875.875 0 0 1 1.008.7.876.876 0 0 1-.7 1.008c-.538.092-1.07.218-1.592.378a.876.876 0 0 1-.274.046v.007Zm6.923-.305a.885.885 0 0 1-.172 0 14.283 14.283 0 0 0-1.63-.23.875.875 0 0 1-.497-1.544.872.872 0 0 1 .64-.203c.615.05 1.228.137 1.834.259a.876.876 0 0 1 .7 1.029.875.875 0 0 1-.872.7l-.003-.01ZM57.75 10.5a1.75 1.75 0 1 1 0 3.5 1.75 1.75 0 0 1 0-3.5Z"/><path fill="currentColor" d="M54.252 6.188c1.673-.966 3.556-.84 4.198.272.642 1.112-.699 5.79-.699 5.79s-4.72-1.175-5.363-2.29c-.644-1.116.19-2.806 1.864-3.772ZM61.252 18.312c-1.674.966-3.556.841-4.199-.271-.642-1.113.699-5.79.699-5.79s4.72 1.174 5.363 2.29c.645 1.115-.19 2.805-1.863 3.771ZM28 68.246a1.75 1.75 0 0 1-1.75-1.75v-21a1.75 1.75 0 0 1 2.534-1.564l6.391 3.195 16.845-4.812a1.75 1.75 0 0 1 1.534.287 1.75 1.75 0 0 1 .7 1.4v15.501a1.75 1.75 0 0 1-1.271 1.684l-24.5 7c-.157.042-.32.062-.483.06Zm1.75-19.918v15.848l21-6v-11.86l-15.27 4.36a1.75 1.75 0 0 1-1.264-.119l-4.466-2.23Z"/><path fill="currentColor" d="M28 68.25a1.75 1.75 0 0 1-1.05-.35l-14-10.5a1.75 1.75 0 0 1-.7-1.4V42.878a1.75 1.75 0 0 1 2.8-1.4l3.034 2.275H28a1.75 1.75 0 0 1 1.75 1.75v21a1.75 1.75 0 0 1-.977 1.572 1.751 1.751 0 0 1-.773.175ZM15.75 55.128l10.5 7.875v-15.75H17.5a1.75 1.75 0 0 1-1.05-.35l-.7-.525v8.75Z"/></svg>