<svg xmlns="http://www.w3.org/2000/svg" width="19" height="24" viewBox="0 0 19 24" fill="none"><path fill="currentColor" d="M18.172 4.922 13.582.328A1.124 1.124 0 0 0 12.787 0H12.5v6h6v-.286c0-.295-.117-.581-.328-.792ZM11 6.375V0H1.625C1.002 0 .5.502.5 1.125v21.75C.5 23.498 1.002 24 1.625 24h15.75c.623 0 1.125-.502 1.125-1.125V7.5h-6.375A1.128 1.128 0 0 1 11 6.375Zm-7.5-3c0-.207.168-.375.375-.375h3.75c.207 0 .375.168.375.375v.75a.375.375 0 0 1-.375.375h-3.75a.375.375 0 0 1-.375-.375v-.75Zm0 3.75v-.75c0-.207.168-.375.375-.375h3.75c.207 0 .375.168.375.375v.75a.375.375 0 0 1-.375.375h-3.75a.375.375 0 0 1-.375-.375Zm6.75 12.37v1.13a.375.375 0 0 1-.375.375h-.75a.375.375 0 0 1-.375-.375v-1.139a2.685 2.685 0 0 1-1.47-.532.376.376 0 0 1-.027-.569l.55-.525a.385.385 0 0 1 .475-.034c.182.113.388.174.601.174h1.318c.305 0 .553-.277.553-.618 0-.28-.17-.525-.41-.597l-2.11-.633c-.872-.261-1.48-1.098-1.48-2.034 0-1.15.892-2.083 2-2.112v-1.131c0-.207.167-.375.375-.375h.75c.207 0 .374.168.374.375v1.139a2.68 2.68 0 0 1 1.471.532.376.376 0 0 1 .027.569l-.551.525a.385.385 0 0 1-.475.034 1.124 1.124 0 0 0-.6-.174H8.801c-.304 0-.553.277-.553.618 0 .28.17.525.411.597l2.11.633c.871.261 1.48 1.098 1.48 2.034 0 1.15-.893 2.083-2 2.112Z"/></svg>