<svg xmlns="http://www.w3.org/2000/svg" width="32" height="32" viewBox="0 0 32 32" fill="none"><path fill="currentColor" d="M30.53 7.5a1 1 0 0 0-.969-.05c-5.366 2.625-9.198 1.395-13.25.098-4.25-1.362-8.656-2.768-14.744.205A1 1 0 0 0 1 8.655v14.991a1 1 0 0 0 1.439.899c5.366-2.625 9.198-1.395 13.256-.098C18.1 25.218 20.55 26 23.32 26c2.136 0 4.466-.465 7.114-1.758a1 1 0 0 0 .561-.897V8.354a1 1 0 0 0-.465-.854ZM29 22.709c-5.075 2.271-8.781 1.086-12.695-.165-2.405-.769-4.855-1.553-7.625-1.553-1.946.01-3.872.392-5.675 1.125V9.291C8.08 7.02 11.786 8.205 15.7 9.456c3.914 1.252 7.942 2.544 13.3.43V22.71ZM16 12a4 4 0 1 0 0 8 4 4 0 0 0 0-8Zm0 6a2 2 0 1 1 0-4 2 2 0 0 1 0 4Zm-9-6v6a1 1 0 1 1-2 0v-6a1 1 0 1 1 2 0Zm18 8v-6a1 1 0 0 1 2 0v6a1 1 0 0 1-2 0Z"/></svg>