<svg width="34" height="34" viewBox="0 0 34 34" fill="none" xmlns="http://www.w3.org/2000/svg">
<path d="M7.08342 26.9167C6.68203 26.9167 6.34534 26.7807 6.07334 26.5087C5.80134 26.2367 5.66581 25.9005 5.66675 25.5C5.66675 25.0986 5.80275 24.7619 6.07475 24.4899C6.34675 24.2179 6.68298 24.0824 7.08342 24.0833H8.50009V14.1667C8.50009 12.207 9.09036 10.4654 10.2709 8.94201C11.4515 7.41862 12.9862 6.42129 14.8751 5.95001V4.95835C14.8751 4.36807 15.0819 3.8661 15.4956 3.45243C15.9093 3.03876 16.4108 2.8324 17.0001 2.83335C17.5904 2.83335 18.0923 3.04018 18.506 3.45385C18.9197 3.86751 19.126 4.36901 19.1251 4.95835V5.95001C21.014 6.42224 22.5487 7.42004 23.7293 8.94343C24.9098 10.4668 25.5001 12.2079 25.5001 14.1667V24.0833H26.9168C27.3181 24.0833 27.6548 24.2193 27.9268 24.4913C28.1988 24.7633 28.3344 25.0996 28.3334 25.5C28.3334 25.9014 28.1974 26.2381 27.9254 26.5101C27.6534 26.7821 27.3172 26.9176 26.9168 26.9167H7.08342ZM17.0001 31.1667C16.2209 31.1667 15.5537 30.889 14.9983 30.3337C14.443 29.7783 14.1658 29.1116 14.1668 28.3333H19.8334C19.8334 29.1125 19.5558 29.7798 19.0004 30.3351C18.4451 30.8904 17.7783 31.1676 17.0001 31.1667Z" fill="#7B8B8B"/>
</svg>
