<svg width="24" height="24" viewBox="0 0 24 24" fill="currentColor" xmlns="http://www.w3.org/2000/svg">
<path d="M21.4286 9.55008H14.3571V3.37274C14.3571 2.61473 13.6534 2 12.7857 2H11.2143C10.3466 2 9.64286 2.61473 9.64286 3.37274V9.55008H2.57143C1.70371 9.55008 1 10.1648 1 10.9228V12.2956C1 13.0536 1.70371 13.6683 2.57143 13.6683H9.64286V19.8456C9.64286 20.6037 10.3466 21.2184 11.2143 21.2184H12.7857C13.6534 21.2184 14.3571 20.6037 14.3571 19.8456V13.6683H21.4286C22.2963 13.6683 23 13.0536 23 12.2956V10.9228C23 10.1648 22.2963 9.55008 21.4286 9.55008Z"/>
</svg>
