<svg xmlns="http://www.w3.org/2000/svg" width="10" height="12" viewBox="0 0 10 12" fill="none"><path fill="currentColor" d="M2.12 10.996V1h3.192c1.288 0 2.226.261 2.814.784.597.523.896 1.241.896 2.156 0 .541-.121 1.05-.364 1.526s-.649.859-1.218 1.148c-.56.29-1.325.434-2.296.434h-.91v3.948H2.12ZM1 9.498V8.14h5.39v1.358H1Zm0-2.45V5.312h4.102v1.736H1Zm3.934-1.736c.401 0 .747-.042 1.036-.126.29-.093.513-.238.672-.434.159-.196.238-.443.238-.742 0-.43-.135-.747-.406-.952-.27-.215-.695-.322-1.274-.322h-.966v2.576h.7Z"/></svg>