<svg width="24" height="24" viewBox="0 0 24 24" fill="none" xmlns="http://www.w3.org/2000/svg">
<path fill="currentColor" d="M20.6011 3.20365H15.4341L15.0294 2.50027C14.9436 2.3499 14.8116 2.2234 14.648 2.13502C14.4845 2.04665 14.2959 1.99989 14.1036 2.00001H9.18208C8.99021 1.99936 8.802 2.04595 8.63903 2.13443C8.47607 2.2229 8.34493 2.34969 8.26064 2.50027L7.85589 3.20365H2.68893C2.50621 3.20365 2.33098 3.26706 2.20178 3.37992C2.07258 3.49279 2 3.64586 2 3.80547V5.00912C2 5.16873 2.07258 5.32181 2.20178 5.43467C2.33098 5.54754 2.50621 5.61094 2.68893 5.61094H20.6011C20.7838 5.61094 20.959 5.54754 21.0882 5.43467C21.2174 5.32181 21.29 5.16873 21.29 5.00912V3.80547C21.29 3.64586 21.2174 3.49279 21.0882 3.37992C20.959 3.26706 20.7838 3.20365 20.6011 3.20365ZM4.29069 19.5657C4.32355 20.0241 4.55513 20.4543 4.9383 20.7687C5.32148 21.0832 5.82743 21.2583 6.35317 21.2583H16.9368C17.4626 21.2583 17.9685 21.0832 18.3517 20.7687C18.7349 20.4543 18.9665 20.0241 18.9993 19.5657L19.9121 6.81459H3.37786L4.29069 19.5657Z"/>
</svg>
