<svg width="34" height="34" viewBox="0 0 34 34" fill="none" xmlns="http://www.w3.org/2000/svg">
<path d="M17 0C7.60887 0 0 7.60887 0 17C0 26.3911 7.60887 34 17 34C26.3911 34 34 26.3911 34 17C34 7.60887 26.3911 0 17 0ZM17 6.58065C20.3315 6.58065 23.0323 9.28145 23.0323 12.6129C23.0323 15.9444 20.3315 18.6452 17 18.6452C13.6685 18.6452 10.9677 15.9444 10.9677 12.6129C10.9677 9.28145 13.6685 6.58065 17 6.58065ZM17 30.1613C12.9762 30.1613 9.37056 28.3379 6.95766 25.4863C8.24637 23.0597 10.769 21.3871 13.7097 21.3871C13.8742 21.3871 14.0387 21.4145 14.1964 21.4625C15.0875 21.7504 16.0198 21.9355 17 21.9355C17.9802 21.9355 18.9194 21.7504 19.8036 21.4625C19.9613 21.4145 20.1258 21.3871 20.2903 21.3871C23.231 21.3871 25.7536 23.0597 27.0423 25.4863C24.6294 28.3379 21.0238 30.1613 17 30.1613Z" fill="#7B8B8B"/>
</svg>
