<svg xmlns="http://www.w3.org/2000/svg" width="32" height="32" viewBox="0 0 32 32" fill="none"><path fill="currentColor" d="M29.151 7.039A1.501 1.501 0 0 0 28 6.5H8.25l-.684-3.769A1.5 1.5 0 0 0 6.091 1.5H3a1.5 1.5 0 0 0 0 3h1.839l3.113 17.125a3.5 3.5 0 0 0 .51 1.276 4 4 0 1 0 6.913 1.599h4.25a4 4 0 1 0 3.875-3H11.396a.5.5 0 0 1-.491-.41l-.29-1.59h13.897a3.5 3.5 0 0 0 3.444-2.875l1.52-8.357a1.5 1.5 0 0 0-.325-1.23ZM12.5 25.5a1 1 0 1 1-2 0 1 1 0 0 1 2 0Zm11 1a1 1 0 1 1 0-2 1 1 0 0 1 0 2ZM25 16.09a.5.5 0 0 1-.488.41H10.07l-1.273-7h17.405L25 16.09Z"/></svg>