<svg xmlns="http://www.w3.org/2000/svg" width="36" height="32" viewBox="0 0 36 32" fill="none"><path fill="currentColor" d="M15 9A6 6 0 1 0 3 9a6 6 0 0 0 12 0Zm2.775 2A9.002 9.002 0 0 1 9 18c-4.969 0-9-4.031-9-9s4.031-9 9-9a9.002 9.002 0 0 1 8.775 7h4.488c.55-.612 1.35-1 2.237-1H31a3 3 0 0 1 0 6h-6.5a3.003 3.003 0 0 1-2.238-1h-4.487ZM9 5a4 4 0 1 1 0 8 4 4 0 0 1 0-8Zm16 10c.831 0 1.5.669 1.5 1.5v.5h6c.831 0 1.5.669 1.5 1.5s-.669 1.5-1.5 1.5h-15c-.831 0-1.5-.669-1.5-1.5s.669-1.5 1.5-1.5h6v-.5c0-.831.669-1.5 1.5-1.5Zm-7 14v-7h14v7a3 3 0 0 1-3 3h-8a3 3 0 0 1-3-3ZM3 20h8a3 3 0 0 1 0 6h-1c0 1.106-.894 2-2 2H4c-1.106 0-2-.894-2-2v-5c0-.55.45-1 1-1Zm8 4c.55 0 1-.45 1-1s-.45-1-1-1h-1v2h1Zm-9.5 5h11c.831 0 1.5.669 1.5 1.5s-.669 1.5-1.5 1.5h-11C.669 32 0 31.331 0 30.5S.669 29 1.5 29Z"/></svg>