<svg xmlns="http://www.w3.org/2000/svg" width="32" height="32" viewBox="0 0 32 32" fill="none"><path fill="currentColor" d="M29.375 18.064 22.391 6.08a7.5 7.5 0 0 0-12.787 0L2.625 18.064A7.5 7.5 0 0 0 9.012 29.5h13.976a7.5 7.5 0 0 0 6.387-11.436ZM19.5 26.5h-7v-5h7v5Zm7.42-2.313a4.444 4.444 0 0 1-3.933 2.313H22.5V21a2.5 2.5 0 0 0-2.5-2.5h-8A2.5 2.5 0 0 0 9.5 21v5.5h-.488a4.5 4.5 0 0 1-3.822-6.875l.021-.035L12.19 7.61a4.5 4.5 0 0 1 7.625 0l6.977 11.981.021.035a4.447 4.447 0 0 1 .107 4.561h.001Z"/></svg>