<svg xmlns="http://www.w3.org/2000/svg" width="32" height="32" viewBox="0 0 32 32" fill="none"><path fill="currentColor" d="M28.594 12.506c-.44-.459-.894-.932-1.043-1.291-.132-.32-.142-.979-.151-1.559-.019-1.25-.042-2.805-1.147-3.909-1.105-1.103-2.66-1.125-3.91-1.147-.58-.009-1.238-.019-1.558-.151-.359-.149-.832-.603-1.291-1.043C18.609 2.557 17.506 1.5 16 1.5c-1.506 0-2.609 1.058-3.494 1.906-.459.44-.932.894-1.291 1.043-.32.132-.979.142-1.559.151-1.25.025-2.805.043-3.906 1.15S4.625 8.406 4.6 9.656c-.009.58-.019 1.239-.151 1.559-.149.359-.603.832-1.043 1.291C2.557 13.391 1.5 14.5 1.5 16c0 1.5 1.058 2.609 1.906 3.5.44.459.894.933 1.043 1.291.132.32.142.979.151 1.559.019 1.25.043 2.805 1.147 3.909 1.106 1.104 2.66 1.125 3.91 1.147.58.009 1.238.019 1.558.152.359.148.832.602 1.291 1.042.885.842 1.994 1.9 3.494 1.9 1.5 0 2.609-1.058 3.494-1.906.459-.44.932-.894 1.291-1.043.32-.132.979-.142 1.559-.151 1.25-.019 2.805-.042 3.909-1.147 1.103-1.105 1.125-2.66 1.147-3.91.009-.58.019-1.238.151-1.558.149-.359.603-.832 1.043-1.291.848-.885 1.906-1.988 1.906-3.494 0-1.506-1.058-2.609-1.906-3.494Zm-2.165 4.912c-.603.625-1.285 1.34-1.649 2.22-.353.85-.366 1.77-.375 2.66-.01.67-.024 1.59-.269 1.833-.245.244-1.162.259-1.832.269-.891.014-1.811.027-2.662.375-.875.364-1.59 1.046-2.22 1.649-.45.431-1.122 1.076-1.422 1.076-.3 0-.973-.645-1.418-1.071-.625-.603-1.34-1.285-2.22-1.649-.85-.353-1.77-.366-2.66-.375-.67-.01-1.59-.024-1.833-.269-.244-.245-.259-1.162-.269-1.832-.014-.891-.027-1.811-.375-2.662-.364-.875-1.046-1.59-1.649-2.22C5.145 16.973 4.5 16.3 4.5 16c0-.3.645-.973 1.071-1.418.603-.625 1.285-1.34 1.649-2.22.353-.85.366-1.77.375-2.66.015-.67.03-1.59.28-1.827.25-.237 1.162-.259 1.832-.269.892-.013 1.812-.027 2.662-.375.875-.364 1.591-1.046 2.22-1.649C15.027 5.145 15.7 4.5 16 4.5c.3 0 .973.645 1.418 1.071.625.603 1.34 1.285 2.22 1.649.85.353 1.77.366 2.66.375.67.01 1.59.024 1.833.269.244.245.259 1.162.269 1.832.014.892.027 1.812.375 2.662.364.874 1.046 1.59 1.649 2.22.426.445 1.071 1.117 1.071 1.417 0 .3-.64.978-1.066 1.423ZM18 22.5a2 2 0 1 1-4 0 2 2 0 0 1 4 0Zm3.5-9c0 2.296-1.711 4.235-4.034 4.82A1.5 1.5 0 0 1 14.5 18v-1a1.5 1.5 0 0 1 1.5-1.5c1.375 0 2.5-.898 2.5-2 0-1.102-1.125-2-2.5-2s-2.5.898-2.5 2v.5a1.5 1.5 0 1 1-3 0v-.5c0-2.758 2.467-5 5.5-5 3.032 0 5.5 2.242 5.5 5Z"/></svg>