<svg xmlns="http://www.w3.org/2000/svg" width="32" height="32" viewBox="0 0 32 32" fill="none"><path fill="currentColor" d="M25 18h-8.875l2.655-2.656a7.515 7.515 0 0 0 3 .652 6.462 6.462 0 0 0 3.375-.942c3-1.822 4.625-5.974 4.318-11.11a1.5 1.5 0 0 0-1.41-1.408c-5.135-.301-9.288 1.311-11.108 4.318-1.155 1.905-1.25 4.175-.291 6.375L15 14.875l-1.392-1.391c.617-1.612.5-3.265-.345-4.67C11.875 6.53 8.765 5.3 4.936 5.526a1.5 1.5 0 0 0-1.41 1.409c-.225 3.83 1 6.942 3.29 8.326.79.483 1.7.738 2.625.738a5.697 5.697 0 0 0 2.04-.392L12.874 17l-1 1H7a1.5 1.5 0 0 0 0 3h.909l1.454 6.542a2.486 2.486 0 0 0 2.44 1.958h8.396a2.485 2.485 0 0 0 2.44-1.958L24.093 21H25a1.5 1.5 0 1 0 0-3Zm-5.487-9.593C20.6 6.611 23.16 5.562 26.5 5.5c-.06 3.336-1.109 5.897-2.906 6.986-1.179.714-2.556.685-4-.077-.768-1.445-.795-2.823-.081-4.002Zm-8.824 4.28c-.654.317-1.5.5-2.318.01-1.058-.642-1.726-2.186-1.85-4.176 1.992.125 3.534.79 4.175 1.849.493.815.304 1.664-.007 2.317ZM19.798 26.5h-7.595L10.98 21h10.04l-1.223 5.5Z"/></svg>