<svg xmlns="http://www.w3.org/2000/svg" width="32" height="32" viewBox="0 0 32 32" fill="none"><g clip-path="url(#a)"><path fill="currentColor" d="M31.72 11.625a1.5 1.5 0 0 0-2.095-.345l-1.125.805V10A1.5 1.5 0 0 0 27 8.5H5A1.5 1.5 0 0 0 3.5 10v2.085l-1.125-.805a1.502 1.502 0 0 0-1.75 2.44L3.5 15.773V23A4.5 4.5 0 0 0 8 27.5h16a4.5 4.5 0 0 0 4.5-4.5v-7.227l2.875-2.053a1.501 1.501 0 0 0 .345-2.095ZM25.5 23a1.5 1.5 0 0 1-1.5 1.5H8A1.5 1.5 0 0 1 6.5 23V11.5h19V23ZM9.5 5V2a1.5 1.5 0 0 1 3 0v3a1.5 1.5 0 1 1-3 0Zm5 0V2a1.5 1.5 0 0 1 3 0v3a1.5 1.5 0 1 1-3 0Zm5 0V2a1.5 1.5 0 0 1 3 0v3a1.5 1.5 0 1 1-3 0Z"/></g><defs><clipPath id="a"><path fill="#fff" d="M0 0h32v32H0z"/></clipPath></defs></svg>