<svg xmlns="http://www.w3.org/2000/svg" width="32" height="32" viewBox="0 0 32 32" fill="none"><g clip-path="url(#a)"><path fill="currentColor" d="M13 6a3 3 0 1 0 0-6 3 3 0 0 0 0 6Zm7 10a4 4 0 1 0 0-8 4 4 0 0 0 0 8Zm6-14a2 2 0 1 0-4 0 2 2 0 0 0 4 0Zm0 10a6 6 0 0 1-1.9 4.381A5.992 5.992 0 0 1 28 22c0 3.313-2.688 6-6 6H10c-3.313 0-6-2.688-6-6 0-3.313 2.688-6 6-6h5.525A5.976 5.976 0 0 1 14 12H6c-3.313 0-6 2.688-6 6v8c0 3.313 2.688 6 6 6h20c3.313 0 6-2.688 6-6v-8c0-3.313-2.688-6-6-6Zm-16 6c-2.206 0-4 1.794-4 4s1.794 4 4 4h12c2.206 0 4-1.794 4-4s-1.794-4-4-4H10Z"/></g><defs><clipPath id="a"><path fill="#fff" d="M0 0h32v32H0z"/></clipPath></defs></svg>