<svg xmlns="http://www.w3.org/2000/svg" width="32" height="32" viewBox="0 0 32 32" fill="none"><path fill="currentColor" d="M25 10.5A1.5 1.5 0 0 0 26.5 9 7.508 7.508 0 0 0 19 1.5h-9A2.5 2.5 0 0 0 7.5 4v6A2.5 2.5 0 0 1 5 12.5a1.5 1.5 0 1 0 0 3 5.508 5.508 0 0 0 5.477-5H13.5v2.578a2.49 2.49 0 0 1-.939 1.952l-1.997 1.595A5.475 5.475 0 0 0 8.5 20.922V28a2.5 2.5 0 0 0 2.5 2.5h13a2.5 2.5 0 0 0 2.5-2.5v-1.566A34.347 34.347 0 0 0 22.585 10.5H25Zm-14.5-6H19a4.5 4.5 0 0 1 4.242 3H10.5v-3Zm13 21.934V27.5h-12v-6.578a2.49 2.49 0 0 1 .939-1.952l2-1.598a5.475 5.475 0 0 0 2.061-4.294V10.5h2.655A31.366 31.366 0 0 1 23.5 26.434Z"/></svg>