<svg xmlns="http://www.w3.org/2000/svg" width="32" height="32" viewBox="0 0 32 32" fill="none"><g clip-path="url(#a)"><path fill="currentColor" d="m30.771 7.238-6.01-3.532a1.487 1.487 0 0 0-.76-.206h-4A1.5 1.5 0 0 0 18.5 5a2.5 2.5 0 1 1-5 0A1.5 1.5 0 0 0 12 3.5H8c-.268 0-.53.072-.76.208L1.23 7.238A2.523 2.523 0 0 0 .25 10.5l2.238 4.6a2.453 2.453 0 0 0 2.22 1.4H6.5V26A2.5 2.5 0 0 0 9 28.5h14a2.5 2.5 0 0 0 2.5-2.5v-9.5h1.79a2.455 2.455 0 0 0 2.219-1.396L31.75 10.5a2.523 2.523 0 0 0-.979-3.262ZM5.046 13.5l-1.9-3.909L6.5 7.625V13.5H5.046Zm17.454 12h-13v-19h1.209a5.5 5.5 0 0 0 10.585 0H22.5v19Zm4.453-12H25.5V7.625l3.354 1.97-1.901 3.905Z"/></g><defs><clipPath id="a"><path fill="#fff" d="M0 0h32v32H0z"/></clipPath></defs></svg>