<svg xmlns="http://www.w3.org/2000/svg" width="32" height="32" viewBox="0 0 32 32" fill="none"><path fill="currentColor" d="M20 10a2 2 0 1 1 4 0 2 2 0 0 1-4 0Zm9-4.5v21a2.5 2.5 0 0 1-2.5 2.5h-21A2.5 2.5 0 0 1 3 26.5v-21A2.5 2.5 0 0 1 5.5 3h21A2.5 2.5 0 0 1 29 5.5ZM26 6H6v20h20V6Zm-8.561 9.439-2 2a1.503 1.503 0 1 0 2.125 2.125l2-2a1.502 1.502 0 1 0-2.125-2.125Zm-1.875-2a1.502 1.502 0 0 0-2.125 0l-1 1a1.502 1.502 0 1 0 2.125 2.125l1-1a1.502 1.502 0 0 0-.003-2.125h.003ZM16 24.5a8.506 8.506 0 0 0 8.399-9.815 1.5 1.5 0 0 0-2.965.461 5.5 5.5 0 1 1-4.58-4.58 1.5 1.5 0 1 0 .461-2.965A8.5 8.5 0 1 0 16 24.5Z"/></svg>