<?xml version="1.0" standalone="no"?>
<!DOCTYPE svg PUBLIC "-//W3C//DTD SVG 20010904//EN"
 "http://www.w3.org/TR/2001/REC-SVG-20010904/DTD/svg10.dtd">
<svg version="1.0" xmlns="http://www.w3.org/2000/svg"
 width="512.000000pt" height="512.000000pt" viewBox="0 0 512.000000 512.000000"
 preserveAspectRatio="xMidYMid meet">
<metadata>
Created by potrace 1.14, written by Peter Selinger 2001-2017
</metadata>
<g transform="translate(0.000000,512.000000) scale(0.100000,-0.100000)"
fill="#000000" stroke="none">
<path d="M878 5109 c-226 -33 -427 -138 -589 -306 -134 -139 -214 -283 -261
-469 l-23 -89 0 -1685 0 -1685 22 -85 c50 -198 145 -361 290 -501 139 -134
283 -214 469 -261 l89 -23 1685 0 1685 0 85 22 c198 50 361 145 501 290 134
139 214 283 261 469 l23 89 0 1680 c0 1603 -1 1684 -19 1760 -43 188 -130 348
-265 488 -138 143 -289 232 -481 286 l-95 26 -1660 1 c-913 1 -1686 -2 -1717
-7z m3388 -178 c177 -37 318 -115 446 -249 121 -127 190 -261 222 -432 14 -73
16 -271 16 -1694 0 -1535 -1 -1615 -19 -1702 -10 -50 -32 -122 -49 -161 -31
-76 -105 -194 -144 -230 l-23 -22 -2152 2122 -2151 2122 37 38 c87 92 249 176
401 208 80 16 184 18 1705 18 1545 1 1624 0 1711 -18z m-1591 -3076 c98 -21
220 -83 287 -148 146 -140 214 -349 174 -537 -56 -265 -270 -454 -538 -476
-200 -16 -421 95 -532 268 -79 124 -111 291 -82 428 68 324 375 531 691 465z"/>
<path d="M2485 4434 c-170 -26 -327 -125 -419 -262 -151 -227 -131 -523 49
-729 61 -69 163 -136 260 -169 101 -34 245 -39 340 -10 198 59 345 199 411
391 34 101 39 245 10 340 -59 197 -200 346 -387 409 -74 25 -202 39 -264 30z"/>
</g>
</svg>
