<svg width="32" height="32" viewBox="0 0 32 32" fill="none" xmlns="http://www.w3.org/2000/svg">
<rect width="32" height="32" rx="16" fill="#5FAEB2"/>
<path d="M14.0147 14.6514L16.725 18.4045C16.725 18.4045 16.2062 21.9231 14.3322 23.5648C12.4581 25.2073 6 24.7377 6 24.7377C6 24.7377 6.11875 23.9423 6.34375 22.8323L9.30062 18.9765C9.42468 18.8149 9.27343 18.577 9.09281 18.6499L7.20531 19.4093C7.65656 17.9772 8.22781 16.6579 8.91156 16.0587C10.7856 14.417 14.0147 14.6514 14.0147 14.6514ZM25.8915 8.26661L25.2709 7.40723C25.0993 7.17005 24.7859 7.13051 24.5706 7.31923L17.3056 13.4311L16.2387 11.954C16.0797 11.7337 15.7656 11.7749 15.6578 12.03L14.8662 13.9051L17.5765 17.6582L19.414 17.2302C19.664 17.1721 19.7709 16.8452 19.6122 16.6252L18.5469 15.1499L25.8118 9.03798C26.0272 8.84961 26.0631 8.50414 25.8915 8.26661Z" fill="white"/>
</svg>
